<svg xmlns="http://www.w3.org/2000/svg" viewBox="0 0 512 512">
  <defs>
    <linearGradient id="bgGrad" x1="0%" y1="0%" x2="100%" y2="100%">
      <stop offset="0%" style="stop-color:#6366f1"/>
      <stop offset="100%" style="stop-color:#8b5cf6"/>
    </linearGradient>
  </defs>
  <rect width="512" height="512" rx="100" fill="url(#bgGrad)"/>
  <g transform="translate(256, 280)">
    <ellipse cx="0" cy="0" rx="140" ry="100" fill="#fff"/>
    <ellipse cx="-50" cy="-20" rx="20" ry="28" fill="#1e1b4b"/>
    <ellipse cx="50" cy="-20" rx="20" ry="28" fill="#1e1b4b"/>
    <ellipse cx="-50" cy="-25" rx="8" ry="10" fill="#fff"/>
    <ellipse cx="50" cy="-25" rx="8" ry="10" fill="#fff"/>
    <ellipse cx="0" cy="20" rx="15" ry="10" fill="#f9a8d4"/>
    <path d="M -30 45 Q 0 65 30 45" stroke="#1e1b4b" stroke-width="4" fill="none"/>
    <line x1="-100" y1="0" x2="-160" y2="-20" stroke="#1e1b4b" stroke-width="3"/>
    <line x1="-100" y1="10" x2="-160" y2="10" stroke="#1e1b4b" stroke-width="3"/>
    <line x1="-100" y1="20" x2="-160" y2="40" stroke="#1e1b4b" stroke-width="3"/>
    <line x1="100" y1="0" x2="160" y2="-20" stroke="#1e1b4b" stroke-width="3"/>
    <line x1="100" y1="10" x2="160" y2="10" stroke="#1e1b4b" stroke-width="3"/>
    <line x1="100" y1="20" x2="160" y2="40" stroke="#1e1b4b" stroke-width="3"/>
  </g>
  <g transform="translate(256, 100)">
    <path d="M -120 80 L -100 -40 L -60 20 L 0 -60 L 60 20 L 100 -40 L 120 80" fill="#fff"/>
  </g>
</svg>
